<svg xmlns="http://www.w3.org/2000/svg" xmlns:xlink="http://www.w3.org/1999/xlink" viewBox="0 0 50 49.99">
    <defs><style>.cls-1{fill:#84aff1;}.cls-2{fill:url(#linear-gradient);}.cls-3{fill:#3865ab;}</style><linearGradient id="linear-gradient" y1="40.18" x2="82.99" y2="40.18" gradientUnits="userSpaceOnUse"><stop offset="0" stop-color="#f2cc0c"/><stop offset="1" stop-color="#ff9830"/></linearGradient></defs>
    <g>
        <path class="cls-2" d="M8.2 35.94a1.04 1.04 0 0 1-.46-.11l-6.67-3.48a1.01 1.01 0 0 1-.54-.89 1 1 0 0 1 .55-.89l3.86-1.96.9 1.78-2.12 1.08 4.5 2.34 4.66-2.36-2.33-1.2.92-1.77 4.06 2.1a1.01 1.01 0 0 1 .54.89 1 1 0 0 1-.55.89l-6.86 3.48c-.14.06-.3.1-.45.1zm16.7 8.02a1.04 1.04 0 0 1-.46-.11l-6.67-3.48a1.01 1.01 0 0 1-.54-.89 1 1 0 0 1 .55-.89l4-2.03.9 1.78-2.26 1.15 4.5 2.34 4.66-2.36-2.18-1.14.92-1.77 3.9 2.04a1.01 1.01 0 0 1 .54.89 1 1 0 0 1-.55.89l-6.86 3.48c-.14.06-.3.1-.45.1zm16.72-8.02a1.04 1.04 0 0 1-.46-.11l-6.67-3.48a1.01 1.01 0 0 1-.54-.89 1 1 0 0 1 .55-.89l3.84-1.95.9 1.78-2.1 1.07 4.5 2.34 4.66-2.36-2.33-1.2.92-1.77 4.06 2.1a1.01 1.01 0 0 1 .54.89 1 1 0 0 1-.55.89l-6.86 3.48a1.09 1.09 0 0 1-.44.1z"/>
        <path class="cls-2" d="M41.64 31.76c-2.42 0-4.4-1.97-4.4-4.4s1.97-4.4 4.4-4.4 4.4 1.97 4.4 4.4-1.97 4.4-4.4 4.4zm0-6.77a2.39 2.39 0 1 0 0 4.78 2.39 2.39 0 0 0 2.39-2.39c0-1.32-1.08-2.4-2.4-2.4z"/>
        <use xlink:href="#B"/>
        <use xlink:href="#B" x="16.79" y="8.19"/>
        <path class="cls-2" d="M31.008 19.335l1.365-1.462 6.775 6.326-1.365 1.462zM9.947 24.8l8.263-7.68 1.362 1.465-8.263 7.68z"/>
        <path class="cls-2" d="M25.23 22.65c-4.58 0-8.3-3.73-8.3-8.3s3.73-8.3 8.3-8.3 8.3 3.73 8.3 8.3-3.73 8.3-8.3 8.3zm0-14.62a6.32 6.32 0 0 0-6.31 6.31 6.32 6.32 0 0 0 6.31 6.31 6.32 6.32 0 0 0 6.31-6.31 6.32 6.32 0 0 0-6.31-6.31z"/>
        <path class="cls-2" d="M24.04 22.24h2v9.6h-2z"/>
    </g>
    <defs >
        <path class="cls-2" id="B" d="M8.25 31.76c-2.42 0-4.4-1.97-4.4-4.4s1.97-4.4 4.4-4.4 4.4 1.97 4.4 4.4-1.97 4.4-4.4 4.4zm0-6.77a2.39 2.39 0 1 0 0 4.78 2.39 2.39 0 1 0 0-4.78z"/>
    </defs>
</svg>
